<svg width="40" height="40" viewBox="0 0 40 40" fill="none" xmlns="http://www.w3.org/2000/svg">
<path d="M20 40C31.0457 40 40 31.0457 40 20C40 8.9543 31.0457 0 20 0C8.9543 0 0 8.9543 0 20C0 31.0457 8.9543 40 20 40Z" fill="#F5F5F5"/>
<path fill-rule="evenodd" clip-rule="evenodd" d="M20 19C24.653 19 28.5 22.476 28.5 26.72C28.5 27.15 28.154 27.5 27.727 27.5H12.273C12.171 27.4996 12.0701 27.4791 11.976 27.4397C11.882 27.4003 11.7966 27.3427 11.7248 27.2702C11.653 27.1978 11.5962 27.1119 11.5576 27.0175C11.5191 26.9231 11.4995 26.822 11.5 26.72C11.5 22.435 15.324 19 20 19ZM20 10.5C20.9017 10.5 21.7666 10.8582 22.4042 11.4958C23.0418 12.1335 23.4 12.9983 23.4 13.9C23.4 14.8017 23.0418 15.6665 22.4042 16.3042C21.7666 16.9418 20.9017 17.3 20 17.3C19.0983 17.3 18.2335 16.9418 17.5958 16.3042C16.9582 15.6665 16.6 14.8017 16.6 13.9C16.6 12.9983 16.9582 12.1335 17.5958 11.4958C18.2335 10.8582 19.0983 10.5 20 10.5Z" fill="#CCCCCC" stroke="#CCCCCC"/>
</svg>
