<svg width="16" height="16" viewBox="0 0 16 16" fill="none" xmlns="http://www.w3.org/2000/svg">
<g clip-path="url(#clip0_962_18454)">
<path d="M13 8.5H3C2.86739 8.5 2.74019 8.44728 2.64642 8.35352C2.55266 8.25975 2.5 8.13261 2.5 8C2.5 7.86739 2.55266 7.74025 2.64642 7.64648C2.74019 7.55272 2.86739 7.5 3 7.5H13C13.1326 7.5 13.2598 7.55272 13.3536 7.64648C13.4473 7.74025 13.5 7.86739 13.5 8C13.5 8.13261 13.4473 8.25975 13.3536 8.35352C13.2598 8.44728 13.1326 8.5 13 8.5Z" fill="white"/>
<path d="M8.00002 13.5C7.86741 13.5 7.74021 13.4473 7.64644 13.3535C7.55267 13.2597 7.50002 13.1326 7.50002 13V3C7.50002 2.86739 7.55267 2.74025 7.64644 2.64648C7.74021 2.55272 7.86741 2.5 8.00002 2.5C8.13262 2.5 8.25976 2.55272 8.35353 2.64648C8.4473 2.74025 8.50002 2.86739 8.50002 3V13C8.50002 13.1326 8.4473 13.2597 8.35353 13.3535C8.25976 13.4473 8.13262 13.5 8.00002 13.5Z" fill="white"/>
</g>
<defs>
<clipPath id="clip0_962_18454">
<rect width="16" height="16" fill="white"/>
</clipPath>
</defs>
</svg>
