<svg width="17" height="16" viewBox="0 0 17 16" fill="none" xmlns="http://www.w3.org/2000/svg">
<rect x="0.785645" width="16" height="16" rx="1" fill="#00707B"/>
<path d="M6.31975 12H8.82775C10.6318 12 11.8638 11.219 11.8638 9.657C11.8638 8.546 11.1818 7.908 10.2028 7.721V7.666C10.9728 7.424 11.3908 6.731 11.3908 5.917C11.3908 4.52 10.2798 3.948 8.65175 3.948H6.31975V12ZM7.22175 7.402V4.674H8.51975C9.82875 4.674 10.4998 5.048 10.4998 6.027C10.4998 6.885 9.91675 7.402 8.46475 7.402H7.22175ZM7.22175 11.274V8.106H8.68475C10.1478 8.106 10.9728 8.59 10.9728 9.624C10.9728 10.768 10.1148 11.274 8.68475 11.274H7.22175Z" fill="white"/>
</svg>
