<svg width="40" height="40" viewBox="0 0 40 40" fill="none" xmlns="http://www.w3.org/2000/svg">
<path d="M15.1102 30.2491C13.55 30.2608 12.048 29.6572 10.9298 28.5692C9.8518 27.4442 9.25 25.9464 9.25 24.3884C9.25 22.8304 9.8518 21.3326 10.9298 20.2076L20.2089 10.929C21.3339 9.85103 22.8317 9.24927 24.3898 9.24927C25.9479 9.24927 27.4458 9.85103 28.5708 10.929C29.0733 11.4187 29.4719 12.0047 29.7429 12.6519C30.0704 13.4305 30.2426 14.2656 30.2498 15.1102C30.2615 16.6704 29.6579 18.1723 28.5698 19.2905C28.431 19.4199 28.2473 19.4903 28.0575 19.487C27.8677 19.4836 27.6866 19.4068 27.5524 19.2726C27.4182 19.1383 27.3413 18.9573 27.338 18.7675C27.3346 18.5777 27.4051 18.3941 27.5345 18.2552C28.3486 17.412 28.7977 16.2821 28.7847 15.1102C28.7738 14.4438 28.6332 13.786 28.3706 13.1734L28.3618 13.151C28.1638 12.7068 27.883 12.3044 27.5345 11.9652C26.6844 11.1622 25.5593 10.7147 24.3898 10.7147C23.2204 10.7147 22.0953 11.1622 21.2452 11.9652L11.9661 21.2439C11.163 22.0939 10.7155 23.219 10.7155 24.3884C10.7155 25.5578 11.163 26.6829 11.9661 27.5329C12.8093 28.3469 13.9392 28.7961 15.1112 28.7831C16.2832 28.7961 17.4131 28.3469 18.2563 27.5329L24.1002 21.6893C24.4499 21.2299 24.6334 20.6656 24.6208 20.0885V20.0582C24.6187 19.8044 24.5646 19.5538 24.4618 19.3218C24.3589 19.0898 24.2096 18.8814 24.0231 18.7094L23.9918 18.6801L23.8717 18.558C23.4568 18.148 22.897 17.9181 22.3138 17.9182C22.0242 17.9133 21.7367 17.9675 21.4689 18.0775C21.201 18.1875 20.9584 18.351 20.7558 18.558L15.2616 24.0519C15.1936 24.12 15.1128 24.1739 15.0239 24.2108C14.935 24.2476 14.8397 24.2665 14.7435 24.2665C14.6472 24.2665 14.552 24.2476 14.463 24.2108C14.3741 24.1739 14.2934 24.12 14.2253 24.0519C14.1573 23.9839 14.1033 23.9031 14.0665 23.8142C14.0296 23.7253 14.0107 23.63 14.0107 23.5338C14.0107 23.4376 14.0296 23.3423 14.0665 23.2534C14.1033 23.1645 14.1573 23.0837 14.2253 23.0156L19.7205 17.5227C20.0589 17.1796 20.4629 16.9082 20.9085 16.7244C21.354 16.5407 21.8319 16.4485 22.3138 16.4532C23.2852 16.4545 24.217 16.8388 24.907 17.5227L25.0145 17.6301C25.3686 17.9528 25.6477 18.3493 25.8318 18.7917C26.0159 19.234 26.1007 19.7114 26.0801 20.19C26.0778 21.0987 25.7594 21.9782 25.1795 22.6777L24.6912 22.245H24.6843L25.1483 22.709L19.2878 28.5692C18.1703 29.6565 16.6695 30.26 15.1102 30.2491Z" fill="#222222"/>
</svg>
