<svg width="16" height="16" viewBox="0 0 16 16" fill="none" xmlns="http://www.w3.org/2000/svg">
<path d="M8 15.5C12.1421 15.5 15.5 12.1421 15.5 8C15.5 3.85786 12.1421 0.5 8 0.5C3.85786 0.5 0.5 3.85786 0.5 8C0.5 12.1421 3.85786 15.5 8 15.5Z" stroke="#898D9C"/>
<path d="M5.90128 5.91156C5.88803 5.65023 5.93084 5.38918 6.02725 5.14593C6.12367 4.90268 6.27119 4.68293 6.45987 4.50164C6.64856 4.32036 6.87409 4.18177 7.121 4.09515C7.36791 4.00853 7.63044 3.97601 7.89102 3.99969C8.23716 3.97326 8.58377 4.04385 8.892 4.20355C9.20023 4.36325 9.4581 4.60573 9.63614 4.90374C9.81418 5.20176 9.90527 5.54346 9.89981 5.89056C9.89436 6.23766 9.79221 6.57632 9.60489 6.86859C8.92189 7.82559 7.89102 7.47459 7.89102 8.61859V9.39959" stroke="#898D9C" stroke-width="1.2" stroke-linecap="round"/>
<path d="M8.0001 12.1008C8.22101 12.1008 8.4001 11.9217 8.4001 11.7008C8.4001 11.4799 8.22101 11.3008 8.0001 11.3008C7.77918 11.3008 7.6001 11.4799 7.6001 11.7008C7.6001 11.9217 7.77918 12.1008 8.0001 12.1008Z" stroke="#898D9C"/>
</svg>
