<svg width="25" height="24" viewBox="0 0 25 24" fill="none" xmlns="http://www.w3.org/2000/svg">
    <path d="m15.584 18.201 2.61 3.323h-2.166l-1.797-2.29a9.036 9.036 0 0 1-4.776 1.33 9.234 9.234 0 0 1-6.732-2.67 8.807 8.807 0 0 1-2.72-6.536A9.157 9.157 0 0 1 2.637 4.7a8.932 8.932 0 0 1 6.67-2.696 9.29 9.29 0 0 1 4.69 1.23 8.964 8.964 0 0 1 3.384 3.373 9.222 9.222 0 0 1 1.231 4.677 9.156 9.156 0 0 1-3.028 6.917zm-1.083-1.378a7.433 7.433 0 0 0 2.29-5.49 7.315 7.315 0 0 0-2.216-5.415 7.263 7.263 0 0 0-5.292-2.19 7.103 7.103 0 0 0-5.256 2.215A7.445 7.445 0 0 0 1.85 11.37a7.1 7.1 0 0 0 2.215 5.342 7.341 7.341 0 0 0 5.268 2.13 7.452 7.452 0 0 0 3.79-1.01l-3.938-4.997h2.142l3.175 3.988zm6.548 2.141a1.404 1.404 0 0 1 .443-1.046 1.45 1.45 0 0 1 1.046-.43 1.41 1.41 0 0 1 1.034.43 1.44 1.44 0 0 1 .43 1.059 1.44 1.44 0 0 1-.43 1.058 1.411 1.411 0 0 1-1.034.43 1.43 1.43 0 0 1-1.046-.442 1.447 1.447 0 0 1-.443-1.059z" fill="#585D72"/>
</svg>
