<svg width="28" height="28" viewBox="0 0 28 28" fill="none" xmlns="http://www.w3.org/2000/svg">
<path opacity="0.4" d="M25.6665 13.9987C25.6665 7.55538 20.4431 2.33203 13.9998 2.33203C7.55647 2.33203 2.33313 7.55538 2.33313 13.9987C2.33313 20.442 7.55647 25.6654 13.9998 25.6654C20.4431 25.6654 25.6665 20.442 25.6665 13.9987Z" fill="#585D72"/>
<path d="M18.168 18.999C17.9474 18.9989 17.7358 18.9114 17.5796 18.7557L9.24626 10.4223C9.09003 10.266 9.00232 10.0541 9.00232 9.83316C9.00232 9.61219 9.09003 9.40026 9.24626 9.24399C9.40253 9.08776 9.61448 9 9.83545 9C10.0564 9 10.2684 9.08776 10.4246 9.24399L18.758 17.5773C18.9142 17.7336 19.0019 17.9455 19.0019 18.1665C19.0019 18.3875 18.9142 18.5994 18.758 18.7557C18.6804 18.833 18.5884 18.8943 18.4872 18.936C18.3859 18.9778 18.2775 18.9992 18.168 18.999Z" fill="white"/>
<path d="M9.83464 18.999C9.61405 18.9989 9.40243 18.9114 9.24626 18.7557C9.09003 18.5994 9.00232 18.3875 9.00232 18.1665C9.00232 17.9455 9.09003 17.7336 9.24626 17.5773L17.5796 9.24399C17.7359 9.08776 17.9478 9 18.1688 9C18.3898 9 18.6017 9.08776 18.758 9.24399C18.9142 9.40026 19.0019 9.61219 19.0019 9.83316C19.0019 10.0541 18.9142 10.266 18.758 10.4223L10.4246 18.7557C10.3471 18.833 10.2551 18.8943 10.1538 18.936C10.0526 18.9778 9.94414 18.9992 9.83464 18.999Z" fill="white"/>
</svg>
