<svg width="24" height="24" viewBox="0 0 24 24" fill="none" xmlns="http://www.w3.org/2000/svg">
<path d="M10.6323 5C11.7463 5 12.8352 5.33034 13.7615 5.94922C14.6877 6.5681 15.4096 7.44775 15.8359 8.47692C16.2622 9.50608 16.3737 10.6386 16.1564 11.7311C15.9391 12.8237 15.4026 13.8272 14.615 14.6149C13.8273 15.4026 12.8237 15.939 11.7312 16.1564C10.6386 16.3737 9.5061 16.2622 8.47693 15.8359C7.44776 15.4096 6.56811 14.6876 5.94923 13.7614C5.33034 12.8352 5 11.7462 5 10.6323C5.00183 9.13907 5.59586 7.70753 6.65173 6.65167C7.7076 5.59581 9.13909 5.00183 10.6323 5ZM10.6323 15.3981C11.5749 15.3981 12.4963 15.1186 13.2801 14.5949C14.0638 14.0712 14.6746 13.3269 15.0354 12.4561C15.3961 11.5853 15.4905 10.627 15.3066 9.70253C15.1227 8.77806 14.6688 7.92887 14.0023 7.26236C13.3357 6.59585 12.4865 6.14199 11.5621 5.95811C10.6376 5.77422 9.67937 5.8686 8.80854 6.22931C7.9377 6.59002 7.19339 7.20086 6.66971 7.98459C6.14604 8.76832 5.86651 9.6897 5.86651 10.6323C5.86811 11.8958 6.37075 13.1071 7.26417 14.0005C8.15758 14.8939 9.36883 15.3965 10.6323 15.3981Z" fill="#898D9C"/>
<path d="M18.6936 18.0808L15.0173 14.4045C14.8481 14.2353 14.5738 14.2353 14.4046 14.4045C14.2354 14.5737 14.2354 14.848 14.4046 15.0172L18.0809 18.6935C18.2501 18.8627 18.5244 18.8627 18.6936 18.6935C18.8628 18.5243 18.8628 18.25 18.6936 18.0808Z" fill="#898D9C"/>
</svg>
