<svg width="40" height="40" viewBox="0 0 40 40" fill="none" xmlns="http://www.w3.org/2000/svg">
<path d="M27.6667 9H11.3333C10.7151 9.00185 10.1226 9.24827 9.68546 9.68546C9.24827 10.1226 9.00185 10.7151 9 11.3333V27.6667C9.00185 28.2849 9.24827 28.8774 9.68546 29.3145C10.1226 29.7517 10.7151 29.9982 11.3333 30H27.6667C28.2849 29.9982 28.8774 29.7517 29.3145 29.3145C29.7517 28.8774 29.9982 28.2849 30 27.6667V11.3333C29.9982 10.7151 29.7517 10.1226 29.3145 9.68546C28.8774 9.24827 28.2849 9.00185 27.6667 9ZM11.3333 10.1667H27.6667C27.8223 10.1573 27.9782 10.1811 28.124 10.2364C28.2698 10.2917 28.4021 10.3773 28.5124 10.4876C28.6227 10.5979 28.7083 10.7302 28.7636 10.876C28.8189 11.0218 28.8427 11.1777 28.8333 11.3333V21.25L26.5 19.15L23.1167 21.8333L16.5833 15.1833L10.1667 20.6667V11.3333C10.1573 11.1777 10.1811 11.0218 10.2364 10.876C10.2917 10.7302 10.3773 10.5979 10.4876 10.4876C10.5979 10.3773 10.7302 10.2917 10.876 10.2364C11.0218 10.1811 11.1777 10.1573 11.3333 10.1667ZM27.6667 28.8333H11.3333C11.1777 28.8427 11.0218 28.8189 10.876 28.7636C10.7302 28.7083 10.5979 28.6227 10.4876 28.5124C10.3773 28.4021 10.2917 28.2698 10.2364 28.124C10.1811 27.9782 10.1573 27.8223 10.1667 27.6667V22.1833L16.4667 16.8167L26.0333 26.3833L26.85 25.5667L23.9333 22.65L26.3833 20.7833L28.8333 22.8833V27.6667C28.8427 27.8223 28.8189 27.9782 28.7636 28.124C28.7083 28.2698 28.6227 28.4021 28.5124 28.5124C28.4021 28.6227 28.2698 28.7083 28.124 28.7636C27.9782 28.8189 27.8223 28.8427 27.6667 28.8333Z" fill="#222222"/>
<path d="M21 15.5C21.8284 15.5 22.5 14.8284 22.5 14C22.5 13.1716 21.8284 12.5 21 12.5C20.1716 12.5 19.5 13.1716 19.5 14C19.5 14.8284 20.1716 15.5 21 15.5Z" stroke="#222222"/>
</svg>
