<svg width="42" height="37" viewBox="0 0 42 37" fill="none" xmlns="http://www.w3.org/2000/svg">
<path fill-rule="evenodd" clip-rule="evenodd" d="M24.0718 1C24.8525 1 25.4747 1.10957 25.9403 1.33262C26.2905 1.49697 26.6173 1.72197 26.9245 2.00567L27.2238 2.30894L28.4584 3.68441C28.6971 3.93876 28.9163 4.14029 29.1178 4.29094C29.3165 4.43854 29.5426 4.54497 29.783 4.60399C30.0276 4.66464 30.3543 4.69595 30.7672 4.69595L36.4529 4.69008C38.9652 4.69008 41 6.76795 41 9.32714V31.1448C41 33.7079 38.9652 35.7818 36.4529 35.7818H5.54706C3.03678 35.7818 1 33.7079 1 31.1448V9.32909C1 6.766 3.03483 4.69204 5.54706 4.69204H11.3835C11.8628 4.67443 12.2287 4.60399 12.4772 4.48073C12.6924 4.37312 12.9272 4.19703 13.1816 3.95246L13.4437 3.68441L14.6783 2.30894C15.0697 1.8785 15.4962 1.55175 15.9638 1.33066C16.3356 1.15457 16.809 1.04891 17.3823 1.0137L17.8323 1H24.0718Z" stroke="#333333" stroke-width="1.3"/>
<path d="M20.8433 26.6026C24.6859 26.6026 27.8009 23.4876 27.8009 19.645C27.8009 15.8025 24.6859 12.6875 20.8433 12.6875C17.0008 12.6875 13.8858 15.8025 13.8858 19.645C13.8858 23.4876 17.0008 26.6026 20.8433 26.6026Z" stroke="#333333" stroke-width="1.3"/>
</svg>
