<svg width="40" height="40" viewBox="0 0 40 40" fill="none" xmlns="http://www.w3.org/2000/svg">
<path d="M26.5001 29H13.5001C13.1709 29.0032 12.8444 28.9407 12.5396 28.8162C12.2349 28.6917 11.958 28.5077 11.7252 28.2749C11.4924 28.0421 11.3084 27.7653 11.1839 27.4605C11.0594 27.1557 10.9969 26.8292 11.0001 26.5V23.5H12.0001V26.5C12.0098 26.8948 12.1709 27.2707 12.4501 27.55C12.7294 27.8292 13.1053 27.9904 13.5001 28H26.5001C26.8949 27.9904 27.2709 27.8292 27.5501 27.55C27.8293 27.2707 27.9905 26.8948 28.0001 26.5V23.5H29.0001V26.5C29.0033 26.8292 28.9408 27.1557 28.8163 27.4605C28.6918 27.7653 28.5078 28.0421 28.275 28.2749C28.0422 28.5077 27.7654 28.6917 27.4606 28.8162C27.1558 28.9407 26.8293 29.0032 26.5001 29Z" fill="#222222"/>
<path d="M24.0996 19.4L20.4996 23V12H19.4996V23L15.8996 19.4L15.0996 20.1L19.9996 25L24.8996 20.1L24.0996 19.4Z" fill="#222222"/>
</svg>
