<svg width="50" height="50" viewBox="0 0 50 50" fill="none" xmlns="http://www.w3.org/2000/svg">
    <g opacity=".2" clip-path="url(#mt87y36m7a)" fill="#585D72" fill-opacity=".2">
        <path d="M45.94 20.841a13.81 13.81 0 0 0-9.798-4.036 13.798 13.798 0 0 0-9.799 4.036 13.652 13.652 0 0 0-4.06 9.743c0 3.68 1.441 7.141 4.06 9.743l8.455 8.406a1.908 1.908 0 0 0 2.687 0l8.455-8.406a13.65 13.65 0 0 0 4.057-9.743c0-3.68-1.44-7.141-4.057-9.743zm-2.684 16.814-7.114 7.074-7.114-7.074a9.913 9.913 0 0 1-2.946-7.074 9.917 9.917 0 0 1 2.946-7.074 10.027 10.027 0 0 1 7.114-2.929c2.687 0 5.212 1.041 7.114 2.93a9.912 9.912 0 0 1 2.946 7.073 9.917 9.917 0 0 1-2.946 7.074z"/>
        <path d="M32.161 26.626a5.574 5.574 0 0 0 0 7.916 5.654 5.654 0 0 0 7.964 0 5.574 5.574 0 0 0 0-7.916 5.654 5.654 0 0 0-7.964 0zM13.5 7.933H9.912c-1.05 0-1.9.845-1.9 1.888 0 1.044.85 1.889 1.9 1.889h3.586c1.05 0 1.9-.845 1.9-1.889 0-1.043-.85-1.888-1.9-1.888zM25.312 7.933h-3.587c-1.05 0-1.899.845-1.899 1.888 0 1.044.85 1.889 1.9 1.889h3.586c1.05 0 1.899-.845 1.899-1.889 0-1.043-.85-1.888-1.9-1.888zM13.5 15.69H9.912c-1.05 0-1.9.846-1.9 1.89 0 1.043.85 1.888 1.9 1.888h3.586c1.05 0 1.9-.845 1.9-1.889 0-1.043-.85-1.888-1.9-1.888zM24.042 19.468c.147-.158.297-.316.45-.471.8-.792 1.663-1.494 2.587-2.099a1.896 1.896 0 0 0-1.767-1.204h-3.587c-1.05 0-1.899.845-1.899 1.888 0 1.044.85 1.888 1.9 1.888h2.316v-.002zM13.5 23.452H9.912c-1.05 0-1.9.844-1.9 1.888s.85 1.888 1.9 1.888h3.586c1.05 0 1.9-.845 1.9-1.888 0-1.044-.85-1.888-1.9-1.888z"/>
        <path d="M22.254 45.512V39.4a16.088 16.088 0 0 1-1.825-3.879 4.622 4.622 0 0 0-2.814-.953c-2.557 0-4.639 2.07-4.639 4.613v6.328H3.798V3.777H31.43v11.101a16.477 16.477 0 0 1 3.796-.652V1.889c0-1.043-.85-1.888-1.9-1.888H1.9C.85 0 0 .845 0 1.888v45.51c0 1.043.85 1.888 1.9 1.888h29.75l-3.798-3.774h-5.6.002z"/>
    </g>
    <defs>
        <clipPath id="mt87y36m7a">
            <path fill="#fff" d="M0 0h50v49.286H0z"/>
        </clipPath>
    </defs>
</svg>
