<svg width="39" height="30" viewBox="0 0 39 30" fill="none" xmlns="http://www.w3.org/2000/svg">
<g clip-path="url(#clip0_165_12407)">
<path d="M38.8098 11.6761C38.5953 11.3903 38.2422 11.2205 37.8623 11.2205H32.3786V5.46321C32.3786 4.87091 31.8602 4.39045 31.2211 4.39045H16.857L12.4593 0.314787C12.2448 0.111832 11.9498 0 11.6415 0H2.1712C1.5321 0 1.01367 0.480464 1.01367 1.07276V25.2533C1.01367 27.871 3.31085 30 6.13092 30H27.2569H27.3597C30.0368 30 32.8881 28.0781 33.8535 25.622L38.9439 12.6619C39.0735 12.3347 39.0199 11.966 38.8053 11.6802L38.8098 11.6761ZM11.1633 2.14138L15.561 6.21704C15.7755 6.41999 16.0705 6.53182 16.3788 6.53182H30.0636V11.2205H8.81245C8.32531 11.2205 7.89179 11.5021 7.72643 11.9246L3.32872 23.1285V2.14138H11.1677H11.1633Z" fill="#3A3541" fill-opacity="0.24"/>
</g>
<defs>
<clipPath id="clip0_165_12407">
<rect width="38" height="30" fill="white" transform="translate(0.511719)"/>
</clipPath>
</defs>
</svg>
