<svg width="24" height="24" viewBox="0 0 24 24" fill="none" xmlns="http://www.w3.org/2000/svg">
    <path d="M8.023 21a5.084 5.084 0 0 1-3.583-1.44 5.18 5.18 0 0 1 0-7.167l7.953-7.953a5.18 5.18 0 0 1 7.168 0c.43.42.772.922 1.004 1.477A5.56 5.56 0 0 1 21 8.024a5.084 5.084 0 0 1-1.44 3.583.628.628 0 0 1-.888-.887 3.82 3.82 0 0 0 1.072-2.696 4.397 4.397 0 0 0-.355-1.66l-.008-.02c-.17-.38-.41-.725-.709-1.016a3.925 3.925 0 0 0-5.39 0l-7.954 7.954a3.925 3.925 0 0 0 0 5.39 3.82 3.82 0 0 0 2.696 1.072 3.82 3.82 0 0 0 2.696-1.072l5.009-5.009c.3-.393.457-.877.446-1.372v-.026a1.591 1.591 0 0 0-.512-1.156l-.027-.025-.103-.105a1.899 1.899 0 0 0-1.335-.548 1.827 1.827 0 0 0-1.336.548l-4.71 4.71a.627.627 0 1 1-.887-.889l4.71-4.708a3.08 3.08 0 0 1 2.223-.917c.832.001 1.63.33 2.222.917l.092.092a2.806 2.806 0 0 1 .914 2.194 3.355 3.355 0 0 1-.772 2.133l-.419-.371h-.006l.398.397-5.023 5.024A5.084 5.084 0 0 1 8.024 21z" fill="#222"/>
</svg>
